<?xml version="1.0" standalone="no"?>
<!DOCTYPE svg PUBLIC "-//W3C//DTD SVG 20010904//EN"
 "http://www.w3.org/TR/2001/REC-SVG-20010904/DTD/svg10.dtd">
<svg version="1.0" xmlns="http://www.w3.org/2000/svg"
 width="2000.000000pt" height="2000.000000pt" viewBox="0 0 2000.000000 2000.000000"
 preserveAspectRatio="xMidYMid meet">
<metadata>
Created by potrace 1.11, written by Peter Selinger 2001-2013
</metadata>
<g transform="translate(0.000000,2000.000000) scale(0.100000,-0.100000)"
fill="#000000" stroke="none">
<path d="M0 15860 l0 -800 3795 -2530 c2087 -1392 3795 -2532 3795 -2535 0 -3
-1708 -1143 -3795 -2535 l-3795 -2530 0 -800 0 -800 1200 0 1200 0 3998 2665
3997 2665 4802 0 4803 0 0 1335 0 1335 -4803 0 -4802 0 -3997 2665 -3998 2665
-1200 0 -1200 0 0 -800z"/>
<path d="M4026 16651 c5 -5 1502 -1004 3326 -2220 l3318 -2211 4665 0 4665 0
0 2220 0 2220 -7992 0 c-4614 0 -7988 -4 -7982 -9z"/>
<path d="M0 9995 c0 -3194 3 -3995 13 -3989 56 34 5977 3985 5977 3989 0 4
-5921 3955 -5977 3989 -10 6 -13 -795 -13 -3989z"/>
<path d="M7347 5556 c-1824 -1217 -3320 -2216 -3324 -2219 -3 -4 3590 -7 7985
-7 l7992 0 0 2220 0 2220 -4667 -1 -4668 0 -3318 -2213z"/>
</g>
</svg>
